<svg width="50" height="50" xmlns="http://www.w3.org/2000/svg">
 <g>
  <title>Layer 1</title>
  <path id="svg_7" d="m690,381c0,0 62,56 39,-16" opacity="NaN" stroke="#000" fill="#fff"/>
  <path id="svg_8" d="m733.32,384.57l0,-0.83812l0,0c0,-0.36002 0.29185,-0.65187 0.65188,-0.65187l0,0l0,0c0.17289,0 0.33869,0.06868 0.46095,0.19093c0.12225,0.12225 0.19093,0.28806 0.19093,0.46095l0,0.09313l0.18625,0l-0.3725,0.3725l-0.3725,-0.3725l0.18625,0l0,-0.09313c0,-0.15429 -0.12508,-0.27937 -0.27937,-0.27937l0,0l0,0c-0.15429,0 -0.27938,0.12508 -0.27938,0.27937l0,0.83812l-0.3725,0l-0.00001,-0.00001z" stroke="#000" fill="#fff"/>
  <path stroke="#000" id="svg_9" d="m661.68,333.825l0,-0.83812l0,0c0,-0.36002 0.29185,-0.65187 0.65188,-0.65187l0,0l0,0c0.17289,0 0.33869,0.06868 0.46095,0.19093c0.12225,0.12225 0.19093,0.28806 0.19093,0.46095l0,0.09313l0.18625,0l-0.3725,0.3725l-0.3725,-0.3725l0.18625,0l0,-0.09313c0,-0.15429 -0.12508,-0.27937 -0.27937,-0.27937l0,0l0,0c-0.15429,0 -0.27938,0.12508 -0.27938,0.27937l0,0.83812l-0.3725,0l-0.00001,-0.00001z" fill="#fff"/>
  <path id="svg_11" d="m731.33,378.6l0,-0.83812l0,0c0,-0.36002 0.29185,-0.65187 0.65188,-0.65187l0,0l0,0c0.17289,0 0.33869,0.06868 0.46095,0.19093c0.12225,0.12225 0.19093,0.28806 0.19093,0.46095l0,0.09313l0.18625,0l-0.3725,0.3725l-0.3725,-0.3725l0.18625,0l0,-0.09313c0,-0.15429 -0.12508,-0.27937 -0.27937,-0.27937l0,0l0,0c-0.15429,0 -0.27938,0.12508 -0.27938,0.27937l0,0.83812l-0.3725,0l-0.00001,-0.00001z" stroke="#000" fill="#fff"/>
  <path id="svg_12" d="m660.685,324.87l0,-0.83812l0,0c0,-0.36002 0.29185,-0.65187 0.65188,-0.65187l0,0l0,0c0.17289,0 0.33869,0.06868 0.46095,0.19093c0.12225,0.12225 0.19093,0.28806 0.19093,0.46095l0,0.09313l0.18625,0l-0.3725,0.3725l-0.3725,-0.3725l0.18625,0l0,-0.09313c0,-0.15429 -0.12508,-0.27937 -0.27937,-0.27937l0,0l0,0c-0.15429,0 -0.27938,0.12508 -0.27938,0.27937l0,0.83812l-0.3725,0l-0.00001,-0.00001z" stroke="#000" fill="#fff"/>
  <line stroke-width="2" stroke-linecap="undefined" stroke-linejoin="undefined" id="svg_1" y2="24.7514" x2="50" y1="25.2486" x1="0" stroke="#000" fill="none"/>
 </g>

</svg>