<svg width="50" height="50" xmlns="http://www.w3.org/2000/svg">
 <g>
  <title>Layer 1</title>
  <rect stroke-width="5" stroke="#000" id="svg_4" height="50" width="50" y="0" x="0" fill="#f0f0f0"/>
  <path fill="#fff" stroke="#000" opacity="NaN" d="m690,381c0,0 62,56 39,-16" id="svg_7"/>
  <path fill="#fff" stroke="#000" d="m733.32,384.57l0,-0.83812l0,0c0,-0.36002 0.29185,-0.65187 0.65188,-0.65187l0,0l0,0c0.17289,0 0.33869,0.06868 0.46095,0.19093c0.12225,0.12225 0.19093,0.28806 0.19093,0.46095l0,0.09313l0.18625,0l-0.3725,0.3725l-0.3725,-0.3725l0.18625,0l0,-0.09313c0,-0.15429 -0.12508,-0.27937 -0.27937,-0.27937l0,0l0,0c-0.15429,0 -0.27938,0.12508 -0.27938,0.27937l0,0.83812l-0.3725,0l-0.00001,-0.00001z" id="svg_8"/>
  <path fill="#fff" d="m661.68,333.825l0,-0.83812l0,0c0,-0.36002 0.29185,-0.65187 0.65188,-0.65187l0,0l0,0c0.17289,0 0.33869,0.06868 0.46095,0.19093c0.12225,0.12225 0.19093,0.28806 0.19093,0.46095l0,0.09313l0.18625,0l-0.3725,0.3725l-0.3725,-0.3725l0.18625,0l0,-0.09313c0,-0.15429 -0.12508,-0.27937 -0.27937,-0.27937l0,0l0,0c-0.15429,0 -0.27938,0.12508 -0.27938,0.27937l0,0.83812l-0.3725,0l-0.00001,-0.00001z" id="svg_9" stroke="#000"/>
  <path fill="#fff" stroke="#000" d="m731.33,378.6l0,-0.83812l0,0c0,-0.36002 0.29185,-0.65187 0.65188,-0.65187l0,0l0,0c0.17289,0 0.33869,0.06868 0.46095,0.19093c0.12225,0.12225 0.19093,0.28806 0.19093,0.46095l0,0.09313l0.18625,0l-0.3725,0.3725l-0.3725,-0.3725l0.18625,0l0,-0.09313c0,-0.15429 -0.12508,-0.27937 -0.27937,-0.27937l0,0l0,0c-0.15429,0 -0.27938,0.12508 -0.27938,0.27937l0,0.83812l-0.3725,0l-0.00001,-0.00001z" id="svg_11"/>
  <path fill="#fff" stroke="#000" d="m660.685,324.87l0,-0.83812l0,0c0,-0.36002 0.29185,-0.65187 0.65188,-0.65187l0,0l0,0c0.17289,0 0.33869,0.06868 0.46095,0.19093c0.12225,0.12225 0.19093,0.28806 0.19093,0.46095l0,0.09313l0.18625,0l-0.3725,0.3725l-0.3725,-0.3725l0.18625,0l0,-0.09313c0,-0.15429 -0.12508,-0.27937 -0.27937,-0.27937l0,0l0,0c-0.15429,0 -0.27938,0.12508 -0.27938,0.27937l0,0.83812l-0.3725,0l-0.00001,-0.00001z" id="svg_12"/>
  <ellipse stroke="#000" ry="18.77682" rx="18.77682" id="svg_13" cy="31.1588" cx="25.1073" stroke-width="2" fill="none"/>
  <path transform="rotate(-13.4976 31.8345 20.8646)" stroke="#000" id="svg_15" d="m40.26643,12.78719l-16.86396,16.15486" opacity="undefined" stroke-width="2" fill="none"/>
  <rect stroke="#000" id="svg_16" height="16.06867" width="44.63519" y="31.63161" x="2.77754" stroke-width="0" fill="#f0f0f0"/>
   <text x="17" y="42" fill="black" font-size="8">|0⟩⟨0|</text>
 </g>

</svg>