<svg width="20" height="20" xmlns="http://www.w3.org/2000/svg">
 <title>Draw</title>

 <g>
  <title>Layer 1</title>
  <path transform="rotate(-89.879 10.4108 9.89374)" stroke="#000" stroke-width="0.5" id="svg_1" d="m2.10548,5.76566l-0.01989,4.31833l0,0c0,4.39444 3.26233,7.95683 7.28662,7.95683l0,0l0,0c1.93254,0 3.78592,-0.83831 5.15243,-2.3305c1.3665,-1.4922 2.1342,-3.51605 2.1342,-5.62633l-0.00474,-3.38135l2.08189,0l-4.06239,-4.95597l-4.26518,4.95597l2.08189,0l0.00474,3.38135c0,1.88333 -1.39814,3.41007 -3.12284,3.41007l0,0l0,0c-1.72469,0 -3.12283,-1.52674 -3.12283,-3.41007l0.01248,-4.31831c-1.35288,-0.00008 -2.80351,0.00006 -4.15638,-0.00002z" fill="#fff"/>
 </g>
</svg>